{"title":"Geordie Shore Complete Season 6 (2013) WEB-DL","uid":11739274,"size":4085845573,"categoryP":"video","categoryS":"tv_shows","magnet":"?xt=urn:btih:f3a2b71777f738d4a7bf19b1a8ab7c79bd354025&amp;dn=Geordie+Shore+Complete+Season+6+%282013%29+WEB-DL&amp;tr=udp%3A%2F%2Ftracker.openbittorrent.com%3A80&amp;tr=udp%3A%2F%2Fopen.demonii.com%3A1337&amp;tr=udp%3A%2F%2Ftracker.coppersurfer.tk%3A6969&amp;tr=udp%3A%2F%2Fexodus.desync.com%3A6969","seeders":13,"leechers":2,"uploader":"jmanwf","files":16,"time":1425702222,"description":"Description\n\nThe Geordies are back. Again! The gang have escaped the grey skies of Newcastle and have flown to the other side of the world to soak up the never ending sunshine of Sydney, Australia. Living in a luxury beach front mint mansion, England's finest exports are going to show the Aussies how to have it Geordie Shore style. How are the locals going to handle the 'buck squad', slut-dropping and getting mortal? Maybe more importantly, how are Gaz, Charlotte, Vicky, Scotty, James, Holly and Sophie going to handle the outback, surfing in shark infested waters and the local wildlife in this series of a lifetime?\n\nVideo\nID : 2\nFormat : AVC\nFormat/Info : Advanced Video Codec\nFormat profile : &lt;a class=&quot;__cf_email__&quot; href=&quot;/cdn-cgi/l/email-protection&quot; data-cfemail=&quot;5d1f3c2e38313433381d116e736d&quot;&gt;[email&amp;#160;protected]&lt;/a&gt;&lt;script cf-hash='f9e31' type=&quot;text/javascript&quot;&gt;\n/* &lt;![CDATA[ */!function(){try{var t=&quot;currentScript&quot;in document?document.currentScript:function(){for(var t=document.getElementsByTagName(&quot;script&quot;),e=t.length;e--;)if(t[e].getAttribute(&quot;cf-hash&quot;))return t[e]}();if(t&amp;&amp;t.previousSibling){var e,r,n,i,c=t.previousSibling,a=c.getAttribute(&quot;data-cfemail&quot;);if(a){for(e=&quot;&quot;,r=parseInt(a.substr(0,2),16),n=2;a.length-n;n+=2)i=parseInt(a.substr(n,2),16)^r,e+=String.fromCharCode(i);e=document.createTextNode(e),c.parentNode.replaceChild(e,c)}}}catch(u){}}();/* ]]&gt; */&lt;/script&gt;\nFormat settings, CABAC : No\nFormat settings, ReFrames : 1 frame\nCodec ID : avc1\nCodec ID/Info : Advanced Video Coding\nDuration : 41mn 33s\nBit rate : 1 541 Kbps\nWidth : 640 pixels\nHeight : 480 pixels\nDisplay aspect ratio : 16:9\nFrame rate mode : Constant\nFrame rate : 25.000 fps\nColor space : YUV\nChroma subsampling : 4:2:0\nBit depth : 8 bits\nScan type : Progressive\nBits/(Pixel*Frame) : 0.201\nStream size : 458 MiB (92%)\nLanguage : English\nEncoded date : UTC 2015-02-21 01:13:35\nTagged date : UTC 2015-02-21 01:16:01\nColor primaries : BT.601 NTSC\nTransfer characteristics : BT.709\nMatrix coefficients : BT.601\nColor range : Limited\n\nAudio\nID : 1\nFormat : AAC\nFormat/Info : Advanced Audio Codec\nFormat profile : LC\nCodec ID : 40\nDuration : 41mn 32s\nBit rate mode : Variable\nBit rate : 123 Kbps\nMaximum bit rate : 206 Kbps\nChannel(s) : 2 channels\nChannel positions : Front: L R\nSampling rate : 44.1 KHz\nCompression mode : Lossy\nStream size : 36.6 MiB (7%)\nLanguage : English\nEncoded date : UTC 2015-02-21 01:13:35\nTagged date : UTC 2015-02-21 01:16:01\n\nText\nID : 3-CC1\nFormat : EIA-608\nMuxing mode : Final Cut\nCodec ID : c608\nDuration : 41mn 11s\nBit rate mode : Constant\nStream size : 0.00 Byte (0%)\nLanguage : English\nEncoded date : UTC 2015-02-21 01:13:35\nTagged date : UTC 2015-02-21 01:14:04\n\n\n\n\nALL 8 Episodes of Season 6\n\n\n\n\n\nALL in MP4\n\n\n\n\n\nALL Have English Subtitles \n\n\n\n &lt;a href=&quot;\nhttps://itunes.apple.com/au/tv-season/geordie-shore-season-6/id666871099&quot; rel=&quot;nofollow&quot; target=&quot;_NEW&quot;&gt;\nhttps://itunes.apple.com/au/tv-season/geordie-shore-season-6/id666871099&lt;/a&gt;","torrent":{"xt":"urn:btih:f3a2b71777f738d4a7bf19b1a8ab7c79bd354025","amp;dn":"Geordie+Shore+Complete+Season+6+%282013%29+WEB-DL","amp;tr":["udp%3A%2F%2Ftracker.openbittorrent.com%3A80","udp%3A%2F%2Fopen.demonii.com%3A1337","udp%3A%2F%2Ftracker.coppersurfer.tk%3A6969","udp%3A%2F%2Fexodus.desync.com%3A6969"],"infoHash":"f3a2b71777f738d4a7bf19b1a8ab7c79bd354025","infoHashBuffer":{"type":"Buffer","data":[243,162,183,23,119,247,56,212,167,191,25,177,168,171,124,121,189,53,64,37]},"announce":[],"urlList":[]}}